# xmcd
#
# Track frame offsets: 
#        150
#        14350
#        35640
#        54701
#        74584
#        91886
#        113479
#        131578
#        147358
#        165276
#        186963
#        207512
#        226799
#        246471
#        266633
#        284485
#        302540
#        322055
#
# Disc length: 4588 seconds
#
# Revision: 2
# Processed by: cddbd v1.5.2PL0 Copyright (c) Steve Scherf et al.
# Submitted via: ExactAudioCopy v1.0b3
#
DISCID=0c11ea12
DTITLE=Various Artist - Новая блатная лирика
DYEAR=2003
DGENRE=Chanson
TTITLE0=Л.Успенская и В.Медяник - Я буду по тебе скучать
TTITLE1=Кабриолет - Кусаю руки
TTITLE2=Е.Кемеровский - Не вспоминай меня
TTITLE3=Трофим - Я скучаю по тебе
TTITLE4=Л.Полотно - Кто тебя создал такую
TTITLE5=И.Корж - Мы встретимся
TTITLE6=Ю.Алмазов и гр.Воровайки - Березы-Тополя
TTITLE7=А.Днепров - От судьбы не уйдешь
TTITLE8=Ф.Карманов - Камерная музыка
TTITLE9=А.Шапиро - Изгнание
TTITLE10=В.Пряников - Город разводных мостов
TTITLE11=О.Марков и Л.Успенская - Прости-прощай
TTITLE12=Л.Портнов - Сын и дочь
TTITLE13=С.Медяник - Не хочу уезжать
TTITLE14=Г.Кричевский - Старые друзья
TTITLE15=Л.Успенская - Горький шоколад
TTITLE16=Кабриолет - Игла
TTITLE17=О.Алябин - Последняя любовь
EXTD=
EXTT0=
EXTT1=
EXTT2=
EXTT3=
EXTT4=
EXTT5=
EXTT6=
EXTT7=
EXTT8=
EXTT9=
EXTT10=
EXTT11=
EXTT12=
EXTT13=
EXTT14=
EXTT15=
EXTT16=
EXTT17=
PLAYORDER=
